<mxfile host="65bd71144e">
    <diagram id="gQ3XXCNgN4q8peVVNvDX" name="Page-1">
        <mxGraphModel dx="2042" dy="781" grid="1" gridSize="10" guides="1" tooltips="1" connect="1" arrows="1" fold="1" page="1" pageScale="1" pageWidth="850" pageHeight="1100" math="0" shadow="0">
            <root>
                <mxCell id="0"/>
                <mxCell id="1" parent="0"/>
                <mxCell id="9" style="edgeStyle=elbowEdgeStyle;html=1;exitX=1;exitY=0.5;exitDx=0;exitDy=0;entryX=0;entryY=0.5;entryDx=0;entryDy=0;fontFamily=Times New Roman;fontSize=30;fontColor=#000000;strokeColor=#000000;strokeWidth=3;endArrow=block;endFill=1;" edge="1" parent="1" source="2" target="6">
                    <mxGeometry relative="1" as="geometry"/>
                </mxCell>
                <mxCell id="12" style="edgeStyle=elbowEdgeStyle;html=1;exitX=1;exitY=0.5;exitDx=0;exitDy=0;entryX=0;entryY=0.5;entryDx=0;entryDy=0;strokeColor=#000000;strokeWidth=3;fontFamily=Times New Roman;fontSize=30;fontColor=#000000;endArrow=block;endFill=1;" edge="1" parent="1" source="2" target="7">
                    <mxGeometry relative="1" as="geometry"/>
                </mxCell>
                <mxCell id="13" style="edgeStyle=elbowEdgeStyle;html=1;exitX=1;exitY=0.5;exitDx=0;exitDy=0;entryX=0;entryY=0.5;entryDx=0;entryDy=0;strokeColor=#000000;strokeWidth=3;fontFamily=Times New Roman;fontSize=30;fontColor=#000000;endArrow=block;endFill=1;" edge="1" parent="1" source="2" target="8">
                    <mxGeometry relative="1" as="geometry"/>
                </mxCell>
                <mxCell id="2" value="&lt;font color=&quot;#000000&quot; face=&quot;Times New Roman&quot; style=&quot;font-size: 40px;&quot;&gt;Input&lt;/font&gt;" style="rounded=1;whiteSpace=wrap;html=1;strokeWidth=3;strokeColor=#000000;" vertex="1" parent="1">
                    <mxGeometry x="-120" y="280" width="160" height="160" as="geometry"/>
                </mxCell>
                <mxCell id="4" value="" style="rounded=0;whiteSpace=wrap;html=1;fontFamily=Times New Roman;fontSize=40;fillColor=none;strokeColor=#000000;strokeWidth=3;" vertex="1" parent="1">
                    <mxGeometry x="200" y="120" width="360" height="480" as="geometry"/>
                </mxCell>
                <mxCell id="5" value="&lt;font color=&quot;#000000&quot; style=&quot;font-size: 30px;&quot;&gt;Direct Multioutput Regressor&lt;/font&gt;" style="text;html=1;strokeColor=none;fillColor=none;align=center;verticalAlign=middle;whiteSpace=wrap;rounded=0;strokeWidth=3;fontFamily=Times New Roman;fontSize=40;" vertex="1" parent="1">
                    <mxGeometry x="130" y="40" width="500" height="60" as="geometry"/>
                </mxCell>
                <mxCell id="19" style="edgeStyle=elbowEdgeStyle;html=1;exitX=1;exitY=0.5;exitDx=0;exitDy=0;entryX=0;entryY=0.5;entryDx=0;entryDy=0;strokeColor=#000000;strokeWidth=3;fontFamily=Times New Roman;fontSize=25;fontColor=#000000;endArrow=block;endFill=1;" edge="1" parent="1" source="6" target="16">
                    <mxGeometry relative="1" as="geometry"/>
                </mxCell>
                <mxCell id="6" value="&lt;font color=&quot;#000000&quot;&gt;model for Y&lt;sub&gt;&lt;font style=&quot;font-size: 25px;&quot;&gt;1&lt;/font&gt;&lt;/sub&gt;&lt;/font&gt;" style="rounded=1;whiteSpace=wrap;html=1;strokeColor=#000000;strokeWidth=3;fontFamily=Times New Roman;fontSize=30;fillColor=none;dashed=1;" vertex="1" parent="1">
                    <mxGeometry x="240" y="160" width="280" height="60" as="geometry"/>
                </mxCell>
                <mxCell id="20" style="edgeStyle=elbowEdgeStyle;html=1;exitX=1;exitY=0.5;exitDx=0;exitDy=0;entryX=0;entryY=0.5;entryDx=0;entryDy=0;strokeColor=#000000;strokeWidth=3;fontFamily=Times New Roman;fontSize=25;fontColor=#000000;endArrow=block;endFill=1;" edge="1" parent="1" source="7" target="17">
                    <mxGeometry relative="1" as="geometry"/>
                </mxCell>
                <mxCell id="7" value="&lt;font color=&quot;#000000&quot;&gt;model for Y&lt;sub&gt;2&lt;/sub&gt;&lt;/font&gt;" style="rounded=1;whiteSpace=wrap;html=1;strokeColor=#000000;strokeWidth=3;fontFamily=Times New Roman;fontSize=30;fillColor=none;dashed=1;" vertex="1" parent="1">
                    <mxGeometry x="240" y="240" width="280" height="60" as="geometry"/>
                </mxCell>
                <mxCell id="21" style="edgeStyle=elbowEdgeStyle;html=1;exitX=1;exitY=0.5;exitDx=0;exitDy=0;entryX=0;entryY=0.5;entryDx=0;entryDy=0;strokeColor=#000000;strokeWidth=3;fontFamily=Times New Roman;fontSize=25;fontColor=#000000;endArrow=block;endFill=1;" edge="1" parent="1" source="8" target="18">
                    <mxGeometry relative="1" as="geometry"/>
                </mxCell>
                <mxCell id="8" value="&lt;font color=&quot;#000000&quot;&gt;model for Y&lt;sub&gt;p&lt;/sub&gt;&lt;/font&gt;" style="rounded=1;whiteSpace=wrap;html=1;strokeColor=#000000;strokeWidth=3;fontFamily=Times New Roman;fontSize=30;fillColor=none;dashed=1;" vertex="1" parent="1">
                    <mxGeometry x="240" y="500" width="280" height="60" as="geometry"/>
                </mxCell>
                <mxCell id="14" value="&lt;font style=&quot;font-size: 40px;&quot;&gt;.&lt;br&gt;.&lt;br&gt;.&lt;/font&gt;" style="text;html=1;strokeColor=none;fillColor=none;align=center;verticalAlign=middle;whiteSpace=wrap;rounded=0;dashed=1;strokeWidth=3;fontFamily=Times New Roman;fontSize=30;fontColor=#000000;" vertex="1" parent="1">
                    <mxGeometry x="340" y="340" width="80" height="95" as="geometry"/>
                </mxCell>
                <mxCell id="16" value="&lt;span style=&quot;color: rgb(0, 0, 0); font-family: &amp;quot;Times New Roman&amp;quot;; font-size: 30px; font-style: normal; font-variant-ligatures: normal; font-variant-caps: normal; font-weight: 400; letter-spacing: normal; orphans: 2; text-align: center; text-indent: 0px; text-transform: none; widows: 2; word-spacing: 0px; -webkit-text-stroke-width: 0px; text-decoration-thickness: initial; text-decoration-style: initial; text-decoration-color: initial; float: none; display: inline !important;&quot;&gt;Y&lt;/span&gt;&lt;sub style=&quot;border-color: rgb(0, 0, 0); color: rgb(0, 0, 0); font-family: &amp;quot;Times New Roman&amp;quot;; font-style: normal; font-variant-ligatures: normal; font-variant-caps: normal; font-weight: 400; letter-spacing: normal; orphans: 2; text-align: center; text-indent: 0px; text-transform: none; widows: 2; word-spacing: 0px; -webkit-text-stroke-width: 0px; text-decoration-thickness: initial; text-decoration-style: initial; text-decoration-color: initial;&quot;&gt;&lt;font style=&quot;font-size: 22px;&quot;&gt;1&lt;/font&gt;&lt;/sub&gt;" style="rounded=1;whiteSpace=wrap;html=1;strokeColor=#000000;strokeWidth=3;fontFamily=Times New Roman;fontSize=40;fontColor=#000000;fillColor=none;" vertex="1" parent="1">
                    <mxGeometry x="640" y="160" width="70" height="60" as="geometry"/>
                </mxCell>
                <mxCell id="17" value="&lt;span style=&quot;color: rgb(0, 0, 0); font-family: &amp;quot;Times New Roman&amp;quot;; font-size: 30px; font-style: normal; font-variant-ligatures: normal; font-variant-caps: normal; font-weight: 400; letter-spacing: normal; orphans: 2; text-align: center; text-indent: 0px; text-transform: none; widows: 2; word-spacing: 0px; -webkit-text-stroke-width: 0px; text-decoration-thickness: initial; text-decoration-style: initial; text-decoration-color: initial; float: none; display: inline !important;&quot;&gt;Y&lt;/span&gt;&lt;sub style=&quot;border-color: rgb(0, 0, 0); color: rgb(0, 0, 0); font-family: &amp;quot;Times New Roman&amp;quot;; font-style: normal; font-variant-ligatures: normal; font-variant-caps: normal; font-weight: 400; letter-spacing: normal; orphans: 2; text-align: center; text-indent: 0px; text-transform: none; widows: 2; word-spacing: 0px; -webkit-text-stroke-width: 0px; text-decoration-thickness: initial; text-decoration-style: initial; text-decoration-color: initial;&quot;&gt;&lt;font style=&quot;font-size: 22px;&quot;&gt;2&lt;/font&gt;&lt;/sub&gt;" style="rounded=1;whiteSpace=wrap;html=1;strokeColor=#000000;strokeWidth=3;fontFamily=Times New Roman;fontSize=40;fontColor=#000000;fillColor=none;" vertex="1" parent="1">
                    <mxGeometry x="640" y="240" width="70" height="60" as="geometry"/>
                </mxCell>
                <mxCell id="18" value="&lt;span style=&quot;font-size: 30px;&quot;&gt;Y&lt;/span&gt;&lt;sub&gt;&lt;font style=&quot;font-size: 22px;&quot;&gt;p&lt;/font&gt;&lt;/sub&gt;" style="rounded=1;whiteSpace=wrap;html=1;strokeColor=#000000;strokeWidth=3;fontFamily=Times New Roman;fontSize=40;fontColor=#000000;fillColor=none;" vertex="1" parent="1">
                    <mxGeometry x="640" y="500" width="70" height="60" as="geometry"/>
                </mxCell>
            </root>
        </mxGraphModel>
    </diagram>
</mxfile>